<svg id="icons" xmlns="http://www.w3.org/2000/svg" xmlns:xlink="http://www.w3.org/1999/xlink" viewBox="0 0 48 48"><defs><linearGradient id="linear-gradient" x1="24" y1="47" x2="24" y2="1" gradientUnits="userSpaceOnUse"><stop offset="0" stop-color="#4dcffe"/><stop offset="1" stop-color="#50efbf"/></linearGradient></defs><title>fitness-training-dumbbell</title><g id="fitness-training-dumbbell"><rect x="2" y="4" width="4" height="10" fill="#fff"/><rect x="6" y="2" width="4" height="14" fill="#fff"/><rect x="42" y="4" width="4" height="10" transform="translate(88 18) rotate(-180)" fill="#fff"/><rect x="38" y="2" width="4" height="14" transform="translate(80 18) rotate(-180)" fill="#fff"/><rect x="10" y="7" width="28" height="4" fill="#c7fff8"/><rect x="13" y="11" width="4" height="4" fill="#fff"/><rect x="31" y="11" width="4" height="4" fill="#fff"/><rect x="22" y="26" width="4" height="12" rx="2" ry="2" transform="translate(56 8) rotate(90)" fill="#d6f7ff"/><path d="M45,3H43a2,2,0,0,0-2-2H39a2,2,0,0,0-2,2V6H11V3A2,2,0,0,0,9,1H7A2,2,0,0,0,5,3H3A2,2,0,0,0,1,5v8a2,2,0,0,0,2,2H5a2,2,0,0,0,2,2H9a2,2,0,0,0,2-2V12h1v3a1,1,0,0,0,1,1h1V46a1,1,0,0,0,2,0V16h1a1,1,0,0,0,1-1V12H30v3a1,1,0,0,0,1,1h1V46a1,1,0,0,0,2,0V16h1a1,1,0,0,0,1-1V12h1v3a2,2,0,0,0,2,2h2a2,2,0,0,0,2-2h2a2,2,0,0,0,2-2V5A2,2,0,0,0,45,3ZM3,13V5H5v8Zm6,2H7V3H9V15Zm7-1H14V12h2Zm18,0H32V12h2Zm1-4H11V8H37v2Zm6,5H39V3h2V15Zm4-2H43V5h2ZM28,29H20a3,3,0,0,0-1,5.82V46a1,1,0,0,0,2,0V44h6v2a1,1,0,0,0,2,0V34.82A3,3,0,0,0,28,29ZM21,42V35h6v7Zm7-9H20a1,1,0,0,1,0-2h8a1,1,0,0,1,0,2Z" fill="url(#linear-gradient)"/></g></svg>