<svg id="icons" xmlns="http://www.w3.org/2000/svg" xmlns:xlink="http://www.w3.org/1999/xlink" viewBox="0 0 48 48"><defs><linearGradient id="linear-gradient" x1="24" y1="47" x2="24" y2="1" gradientUnits="userSpaceOnUse"><stop offset="0" stop-color="#4dcffe"/><stop offset="1" stop-color="#50efbf"/></linearGradient></defs><title>fitness-gym-weight-machine</title><g id="fitness-gym-weight-machine"><rect x="39" y="16" width="7" height="12" rx="2" ry="2" fill="#c7fff8"/><path d="M41,28h3v2.5a1.5,1.5,0,0,1-3,0Z" fill="#fff"/><path d="M31,36H15V34a2,2,0,0,1,2-2H31a2,2,0,0,1,2,2v2Z" fill="#d6f7ff"/><rect x="17" y="36" width="14" height="10" fill="#fff"/><rect x="17" y="12" width="14" height="20" fill="#fff"/><path d="M31,5V9H24V2h4A3,3,0,0,1,31,5Z" fill="#fff"/><path d="M24,2V9H17V5a3,3,0,0,1,3-3Z" fill="#fff"/><path d="M31,12H8a1,1,0,0,0-1,1v3H4V13A4,4,0,0,1,8,9H40a4,4,0,0,1,4,4v3H41V13a1,1,0,0,0-1-1Z" fill="#fff"/><rect x="2" y="16" width="7" height="12" rx="2" ry="2" fill="#c7fff8"/><path d="M4,28H7v2.5a1.5,1.5,0,0,1-3,0Z" fill="#fff"/><path d="M45,15.18V13a5,5,0,0,0-5-5H32V5a4,4,0,0,0-4-4H20a4,4,0,0,0-4,4V8H8a5,5,0,0,0-5,5v2.18A3,3,0,0,0,1,18v8a3,3,0,0,0,2,2.82V30.5a2.5,2.5,0,0,0,5,0V28.82A3,3,0,0,0,10,26V18a3,3,0,0,0-2-2.82V13h8V31.18A3,3,0,0,0,14,34v1H13a1,1,0,0,0,0,2h3v8H9a1,1,0,0,0,0,2H39a1,1,0,0,0,0-2H32V37h3a1,1,0,0,0,0-2H34V34a3,3,0,0,0-2-2.82V13h8v2.18A3,3,0,0,0,38,18v8a3,3,0,0,0,2,2.82V30.5a2.5,2.5,0,0,0,5,0V28.82A3,3,0,0,0,47,26V18A3,3,0,0,0,45,15.18ZM30,5V8H25V3h3A2,2,0,0,1,30,5ZM18,5a2,2,0,0,1,2-2h3V8H18ZM6,30.5a.5.5,0,0,1-1,0V29H6ZM8,26a1,1,0,0,1-1,1H4a1,1,0,0,1-1-1V18a1,1,0,0,1,1-1H7a1,1,0,0,1,1,1ZM30,45H18V37H30ZM16,35V34a1,1,0,0,1,1-1H31a1,1,0,0,1,1,1v1Zm14-4H18V13H30ZM8,11a2,2,0,0,0-2,2v2H5V13a3,3,0,0,1,3-3H40a3,3,0,0,1,3,3v2H42V13a2,2,0,0,0-2-2ZM43,30.5a.5.5,0,0,1-1,0V29h1ZM45,26a1,1,0,0,1-1,1H41a1,1,0,0,1-1-1V18a1,1,0,0,1,1-1h3a1,1,0,0,1,1,1Z" fill="url(#linear-gradient)"/></g></svg>