<svg id="icons" xmlns="http://www.w3.org/2000/svg" xmlns:xlink="http://www.w3.org/1999/xlink" viewBox="0 0 48 48"><defs><linearGradient id="linear-gradient" x1="24" y1="47" x2="24" y2="1" gradientUnits="userSpaceOnUse"><stop offset="0" stop-color="#4dcffe"/><stop offset="1" stop-color="#50efbf"/></linearGradient></defs><title>fitness-gym-weight</title><g id="fitness-gym-weight"><path d="M24,2A22,22,0,1,1,2,24,22,22,0,0,1,24,2ZM42,24A18,18,0,1,0,24,42,18,18,0,0,0,42,24Z" fill="#c7fff8"/><path d="M24,16a8,8,0,1,1-8,8A8,8,0,0,1,24,16Zm4,8a4,4,0,1,0-4,4A4,4,0,0,0,28,24Z" fill="#d6f7ff"/><circle cx="24" cy="24" r="4" fill="#fff"/><path d="M32,24a8,8,0,1,0-8,8A8,8,0,0,0,32,24ZM24,6A18,18,0,1,1,6,24,18,18,0,0,1,24,6Z" fill="#fff"/><path d="M24,1A23,23,0,1,0,47,24,23,23,0,0,0,24,1Zm0,44A21,21,0,1,1,45,24,21,21,0,0,1,24,45ZM24,5A19,19,0,1,0,43,24,19,19,0,0,0,24,5Zm0,36A17,17,0,1,1,41,24,17,17,0,0,1,24,41Zm0-22a5,5,0,1,0,5,5A5,5,0,0,0,24,19Zm0,8a3,3,0,1,1,3-3A3,3,0,0,1,24,27ZM34.71,13.29a1,1,0,0,0-1.42,0L29.61,17a9,9,0,0,0-11.22,0l-3.68-3.68a1,1,0,0,0-1.42,1.42L17,18.39a9,9,0,0,0,0,11.22l-3.68,3.68a1,1,0,0,0,0,1.42,1,1,0,0,0,1.42,0L18.39,31a9,9,0,0,0,11.22,0l3.68,3.68a1,1,0,0,0,1.42,0,1,1,0,0,0,0-1.42L31,29.61a9,9,0,0,0,0-11.22l3.68-3.68A1,1,0,0,0,34.71,13.29ZM24,31a7,7,0,1,1,7-7A7,7,0,0,1,24,31Z" fill="url(#linear-gradient)"/></g></svg>