<svg id="icons" xmlns="http://www.w3.org/2000/svg" xmlns:xlink="http://www.w3.org/1999/xlink" viewBox="0 0 48 48"><defs><linearGradient id="linear-gradient" x1="24" y1="47" x2="24" y2="1" gradientUnits="userSpaceOnUse"><stop offset="0" stop-color="#4dcffe"/><stop offset="1" stop-color="#50efbf"/></linearGradient></defs><title>fitness-gym-treadmill</title><g id="fitness-gym-treadmill"><path d="M39,29a7,7,0,0,1,0,14H9A7,7,0,0,1,9,29H39Zm3,7a3,3,0,1,0-3,3A3,3,0,0,0,42,36ZM12,36a3,3,0,1,0-3,3A3,3,0,0,0,12,36Z" fill="#fff"/><circle cx="39" cy="36" r="3" fill="#d6f7ff"/><polygon points="33 6 41 29 39 29 33 29 29 6 33 6" fill="#c7fff8"/><polygon points="41 43 41 46 33 46 33 43 39 43 41 43" fill="#d6f7ff"/><polygon points="15 43 15 46 7 46 7 43 9 43 15 43" fill="#d6f7ff"/><circle cx="9" cy="36" r="3" fill="#d6f7ff"/><path d="M47,36a8,8,0,0,0-5.1-7.45L34.41,7H36a1,1,0,0,0,.71-.29l4-4a1,1,0,1,0-1.42-1.42L35.59,5H26a1,1,0,0,0,0,2h2.16l3.65,21H9A8,8,0,0,0,6,43.41V46a1,1,0,0,0,1,1h8a1,1,0,0,0,1-1V44H32v2a1,1,0,0,0,1,1h8a1,1,0,0,0,1-1V43.41A8,8,0,0,0,47,36ZM30.19,7h2.1l7.3,21H33.84ZM14,45H8V44h6Zm26-1v1H34V44h6Zm-1-2H9A6,6,0,0,1,9,30H39a6,6,0,0,1,0,12ZM9,32a4,4,0,1,0,4,4A4,4,0,0,0,9,32Zm0,6a2,2,0,1,1,2-2A2,2,0,0,1,9,38Zm30-6a4,4,0,1,0,4,4A4,4,0,0,0,39,32Zm0,6a2,2,0,1,1,2-2A2,2,0,0,1,39,38Zm-6-4a1,1,0,0,1-1,1H16a1,1,0,0,1,0-2H32A1,1,0,0,1,33,34Zm0,4a1,1,0,0,1-1,1H16a1,1,0,0,1,0-2H32A1,1,0,0,1,33,38Z" fill="url(#linear-gradient)"/></g></svg>