<svg id="icons" xmlns="http://www.w3.org/2000/svg" xmlns:xlink="http://www.w3.org/1999/xlink" viewBox="0 0 48 48"><defs><linearGradient id="linear-gradient" x1="24" y1="47" x2="24" y2="1" gradientUnits="userSpaceOnUse"><stop offset="0" stop-color="#4dcffe"/><stop offset="1" stop-color="#50efbf"/></linearGradient></defs><title>hand-dumbbell</title><g id="hand-dumbbell"><rect x="42" y="4" width="4" height="18" rx="1" ry="1" fill="#c7fff8"/><path d="M42,21v2a1,1,0,0,1-1,1H39a1,1,0,0,1-1-1V3a1,1,0,0,1,1-1h2a1,1,0,0,1,1,1V21Z" fill="#c7fff8"/><path d="M38,9v8H32a3,3,0,0,0-3-3h1a2,2,0,0,0,2-2V9Z" fill="#c7fff8"/><path d="M32,12a2,2,0,0,1-2,2H24V4a2,2,0,0,1,2-2,2,2,0,0,1,2,2V5.2a2,2,0,0,1,2-2,2,2,0,0,1,2,2V12Z" fill="#fff"/><path d="M24,12v2H22a2,2,0,0,1-2-2V4a2,2,0,0,1,2-2,2,2,0,0,1,2,2Z" fill="#fff"/><path d="M24,14h5a3,3,0,0,1,3,3v6a2,2,0,0,1-2,2V47H18V25a2,2,0,0,1-2-2V17h6l.48-.1A4,4,0,0,1,22,15V14Z" fill="#fff"/><path d="M22,15a4,4,0,0,0,.48,1.9L22,17H10V9h6v3a2,2,0,0,0,2,2,2,2,0,0,0,2-2,2,2,0,0,0,2,2Z" fill="#c7fff8"/><path d="M20,6.4V12a2,2,0,0,1-2,2,2,2,0,0,1-2-2V6.4a2,2,0,0,1,2-2A2,2,0,0,1,20,6.4Z" fill="#fff"/><path d="M10,17v6a1,1,0,0,1-1,1H7a1,1,0,0,1-1-1V3A1,1,0,0,1,7,2H9a1,1,0,0,1,1,1V17Z" fill="#c7fff8"/><rect x="2" y="4" width="4" height="18" rx="1" ry="1" fill="#c7fff8"/><path d="M45,3H43a2,2,0,0,0-2-2H39a2,2,0,0,0-2,2V8H33V5.2a3,3,0,0,0-4.39-2.64A3,3,0,0,0,24,1.78,3,3,0,0,0,19,3.6a3,3,0,0,0-1-.2,3,3,0,0,0-3,3V8H11V3A2,2,0,0,0,9,1H7A2,2,0,0,0,5,3H3A2,2,0,0,0,1,5V21a2,2,0,0,0,2,2H5a2,2,0,0,0,2,2H9a2,2,0,0,0,2-2V18h4v5a3,3,0,0,0,2,2.83V46a1,1,0,0,0,2,0V25a1,1,0,0,0-1-1,1,1,0,0,1-1-1V18h5a5.07,5.07,0,0,0,2.22,1.68A5,5,0,0,0,23,23a1,1,0,0,0,2,0A3.19,3.19,0,0,1,27.32,20,1,1,0,0,0,27,18H26a3,3,0,0,1-3-3h6a2,2,0,0,1,2,2v6a1,1,0,0,1-1,1,1,1,0,0,0-1,1V46a1,1,0,0,0,2,0V25.83A3,3,0,0,0,33,23V18h4v5a2,2,0,0,0,2,2h2a2,2,0,0,0,2-2h2a2,2,0,0,0,2-2V5A2,2,0,0,0,45,3ZM30,4.2a1,1,0,0,1,1,1V12a1,1,0,0,1-1,1H29V5.2A1,1,0,0,1,30,4.2ZM21,4a1,1,0,0,1,2,0v9H22a1,1,0,0,1-1-1V4ZM17,6.4a1,1,0,1,1,2,0V12a1,1,0,0,1-2,0ZM3,21V5H5V21Zm6,2H7V3H9Zm2-7V10h4v2a3,3,0,0,0,3,3,3,3,0,0,0,2-.78,3.17,3.17,0,0,0,1,.6V15a5.47,5.47,0,0,0,.11,1Zm14-3V4a1,1,0,0,1,2,0v9Zm7.86,3a4,4,0,0,0-.94-1.71A3,3,0,0,0,33,12V10h4v6ZM41,23H39V3h2V23Zm4-2H43V5h2Z" fill="url(#linear-gradient)"/></g></svg>