<svg id="icons" xmlns="http://www.w3.org/2000/svg" xmlns:xlink="http://www.w3.org/1999/xlink" viewBox="0 0 48 48"><defs><linearGradient id="linear-gradient" x1="24" y1="47" x2="24" y2="1" gradientUnits="userSpaceOnUse"><stop offset="0" stop-color="#4dcffe"/><stop offset="1" stop-color="#50efbf"/></linearGradient></defs><title>arm-biceps-muscle-strong</title><g id="arm-biceps-muscle-strong"><path d="M7,20s5.37.67,6.39,1.35c2.67,1.79,1.68,2.65,3,2a11.1,11.1,0,0,1,7.2-1.07,47.72,47.72,0,0,1,6.26,2.43c-2.25-3.38-5.18-16.13-5.18-16.13-.49.92-2.8.94-4.51,0S18.6,4.15,19.51,2.7s6.71-.54,8.23,1.71S40.41,26.69,40,29.12s-8.6,8.11-15,9.15c-7.14,1.16-9.48-1-9.72-.89s0,2.85-1.16,4.81C13.52,43.22,7,46,7,46Z" fill="#fff"/><path d="M8,47a1,1,0,0,1-.45-1.89c2.46-1.25,5.37-2.93,5.76-3.46a8.13,8.13,0,0,0,.86-3.53c.06-.77.11-1.32.67-1.62a1.35,1.35,0,0,1,1.28.11c.8.39,3.26,1.56,8.75.67C31.43,36.21,38.71,30.59,39,29c.12-2.27-10.25-21.26-12.09-24-.62-.91-2.56-1.75-4.52-1.93a3.27,3.27,0,0,0-2.05.21A5.06,5.06,0,0,0,20,6.62a1.78,1.78,0,0,0,.68,1.09,3.75,3.75,0,0,0,3.16.38,1,1,0,0,1,1-.51,1,1,0,0,1,.84.78c.8,3.5,3.27,13.16,5,15.8a1,1,0,0,1-1.24,1.47,44.06,44.06,0,0,0-6.05-2.36,10.16,10.16,0,0,0-6.57,1c-1.09.52-1.7.39-2.31-.49a5.58,5.58,0,0,0-1.69-1.59,22,22,0,0,0-5-1.19,1,1,0,1,1,.3-2c1.08.17,4.68.76,5.8,1.51A7.67,7.67,0,0,1,16,22.43a12,12,0,0,1,7.78-1.12,26.86,26.86,0,0,1,4,1.4A105.8,105.8,0,0,1,24,10.15a6.3,6.3,0,0,1-4.34-.69,3.57,3.57,0,0,1-1.65-2.34,7,7,0,0,1,.62-4.95A3.3,3.3,0,0,1,21.56,1c2.08,0,5.64.83,7,2.85,1,1.47,12.94,22.38,12.4,25.44-.57,3.27-9.57,9-15.78,10-4.82.79-7.63.1-9.07-.45A9.12,9.12,0,0,1,15,42.71c-.71,1.15-4.82,3.31-6.56,4.18A.91.91,0,0,1,8,47Z" fill="url(#linear-gradient)"/></g></svg>